<svg xmlns="http://www.w3.org/2000/svg" viewBox="0 0 94.69 94.71"><path d="M32.67 89.17c-2.37-4.24-2.13-9.03-.83-13.48.51-1.75 1.14-3.32 1.77-5.06-.8.73-1.49 1.44-2.18 2.29-3 3.68-7.44 6.97-12.32 7.48-4.39.46-8.46-1.7-10.58-5.56-2.23-4.07-1.84-8.94.84-12.75 1.6-2.28 3.69-4.11 6.22-5.32l5.68-2.71-5.26.23c-4.81.21-9.95-1.15-13.18-4.78C-1.81 44.3-.6 36.3 5.39 32.75c3.96-2.35 9.1-2.38 13.44-.92l5.38 1.81-4.23-3.72c-4.66-4.1-7.46-12.33-4.01-17.96 1.32-2.15 3.36-3.52 5.71-4.34 3.47-1.21 7.1-.76 10.12 1.35 4.3 3 6.66 7.7 8.82 12.59.01-3.03-.41-5.73-.09-8.58s1.17-5.58 2.81-8.01C46.49.32 52.55-1.4 57.58 1.23c2.85 1.49 4.8 4.14 5.66 7.23 1.46 5.18-.18 11.21-2.55 15.98.28.18.46-.05.65-.27l2.86-3.39c3.44-4.08 8.59-7.06 14.04-6.3 3.37.47 6.26 2.5 7.83 5.12 1.94 3.22 2.13 6.87.72 10.18-1.13 2.66-2.93 5.23-5.48 6.61l-8.02 4.32 5.97-.27c7.74-.35 15.9 4.46 15.41 12.76-.21 3.53-2.16 6.82-5.31 8.72-4.79 2.9-10.33 2.2-15.35.35l-3.32-1.23c-.07.05-.1.09-.1.15l4.76 4.32c3.04 2.76 4.69 6.79 4.93 10.87s-1.63 7.58-5 9.7c-8.22 5.17-16.8-2.41-19.85-9.66-.42-1.01-.57-2.05-1.4-2.89.37 5.47.66 10.81-2.26 15.56-1.61 2.61-4 4.52-6.99 5.27-4.78 1.2-9.68-.84-12.11-5.2Zm29.79-41.81c0-8.35-6.77-15.11-15.12-15.11s-15.12 6.77-15.12 15.11 6.77 15.11 15.12 15.11 15.12-6.77 15.12-15.11" style="fill:#d6117b"/></svg>