<?xml version="1.0" encoding="UTF-8"?>
<svg id="Layer_1" data-name="Layer 1" xmlns="http://www.w3.org/2000/svg" viewBox="0 0 902.63 902.85">
  <defs>
    <style>
      .cls-1 {
        fill: #ba94c4;
      }

      .cls-2 {
        fill: #d8127b;
      }

      .cls-3 {
        fill: #8fc19c;
      }

      .cls-4 {
        fill: #fffaf2;
      }

      .cls-5 {
        fill: #fff570;
      }

      .cls-6 {
        fill: #dc89ba;
      }
    </style>
  </defs>
  <path class="cls-2" d="M52.81,805.56c-3.2.64-5.4-.67-7.39-2.36-.88-.75-1.4-1.68-.84-2.99.6-1.4,1.84-1.96,3.21-2.18,2.81-.45,6.65,2.54,6.76,5.2.04.92-.18,1.21-1.72,2.33"/>
  <rect class="cls-2" x="605.89" y="576.12" width="296.74" height="326.46"/>
  <polygon class="cls-2" points="293.87 602.25 321.02 299.21 647.48 299.21 647.48 602.25 293.87 602.25"/>
  <polygon class="cls-5" points="1.08 599.81 1.08 296.76 279.42 296.76 293.87 602.25 1.08 599.81"/>
  <polygon class="cls-1" points="0 902.85 1.08 599.81 303.04 902.85 0 902.85"/>
  <polygon class="cls-2" points="303.04 599.81 303.04 902.85 1.08 599.81 303.04 599.81"/>
  <polygon class="cls-4" points="307 450.73 469.09 295.66 298.25 295.66 163.89 450.73 307 605.81 469.09 605.81 307 450.73"/>
  <polygon class="cls-6" points="605.89 902.85 302.84 902.85 605.89 599.81 605.89 902.85"/>
  <polygon class="cls-3" points="302.84 599.81 605.89 599.81 302.84 902.85 302.84 599.81"/>
  <polygon class="cls-6" points="902.63 3.56 605.89 300.3 902.63 300.3 902.63 3.56"/>
  <polygon class="cls-4" points="605.89 0 605.89 300.3 902.63 3.56 902.63 0 605.89 0"/>
  <polygon class="cls-5" points="302.84 0 302.84 300.3 603.14 0 302.84 0"/>
  <polygon class="cls-4" points="603.03 0 293.87 296.76 605.89 300.3 605.89 0 603.03 0"/>
  <polygon class="cls-1" points="902.63 300.79 605.89 300.3 609.37 577.26 902.63 577.27 902.63 300.79"/>
  <polygon class="cls-3" points="902.63 418.65 761.75 300.3 607.67 447.6 607.67 605.81 761.75 436.34 902.63 580.32 902.63 418.65"/>
  <polygon class="cls-5" points="902.63 562.93 757.41 434.16 605.89 599.81 605.89 739.36 757.41 577.26 902.63 732.61 902.63 562.93"/>
  <path class="cls-4" d="M308.56,602.17c7.27,7.79,13.13,15.1,18.88,24.17,27.35,43.14,49.84,91.97,77.62,134.67,43.61,67.04,141.97,64.38,178.58-7.4,46.36-90.9-56.84-186.47-144.2-133.47-14.93,9.06-25.21,20.81-35.77,34.39l-27-49.86c69.61-79.19,199.71-65.4,250.97,27.09,60.22,108.65-24.52,239-147.92,230.33-110.62-7.77-145.08-125.61-195.48-205.56-67.73-107.45-224.14-29.62-185.38,85,23.53,69.59,114.94,90.54,167.93,39.78,2.66-2.55,15.64-19.83,17.07-19.48l27.58,47.58c-60.96,70.49-170.74,70.11-232.33.2-65.72-74.59-44.53-191.26,42.49-238.22,62.75-33.86,138.72-20.87,186.96,30.78Z"/>
  <polygon class="cls-2" points="1.08 0 1.08 298.11 304.12 296.76 304.12 0 1.08 0"/>
  <path class="cls-1" d="M7.95,298.11c3.57-34.03,16.96-67.65,41.04-91.97,21.87-22.09,52.92-35.68,84.21-33.9,34.8,1.98,63.07,24.87,96.63,31.51,33.68,6.67,70.5-5.97,93-31.91,13.28-15.31,21.58-34.47,35.07-49.59,19.68-22.05,50.25-33.86,79.64-30.77,23.38,2.46,44.85,13.54,67.36,20.33,15.63,4.71,33.3,7.4,49.34,3.07,16.2-4.37,34.52-23.55,52.29-15.97,0,0-.28,15.36,0,33.42v57.21l-.64,110.77"/>
  <path class="cls-4" d="M902.63,693.7c-80.52-28.63-17.79-155.43-51.62-214.57-16.77-29.33-50.51-44.51-83.28-52.73-11.09-2.78-22.7-5.15-31.89-11.95-15.59-11.54-18.43-30.58-19.84-48.62-1.66-21.27-.68-42.91-.71-64.23l-93.55-1.29c-.13,29.48.24,63.23,0,92.79-.1,13.22.64,26.84,6.13,38.87,12.8,28.07,46.42,39.03,76.61,45.37,30.19,6.34,63.74,12.86,82.19,37.58,11.66,15.62,14.96,35.9,15.78,55.37,2.25,53.96-17.21,103.6,4.37,156.24,16.13,39.33,59.01,62.4,95.8,81.3v-114.11Z"/>
  <path class="cls-3" d="M7.98,298.11s-.03,1.94-.03,2.36c0,81.01,65.67,146.68,146.68,146.68s146.68-65.67,146.68-146.68c0-.42-.03-.84-.03-1.26l-293.3-1.1Z"/>
  <g id="E9FF7U.tif">
    <path class="cls-3" d="M547.24,233.23c1.99.76,1.49-.35,2.3-1.21,5.46-5.79,9.81-12.51,16.35-17.5,41.76-31.84,82.22,20.14,40.66,52.27l-24,12.54c9.46-.04,18.95-1.8,28.38-.08,51.5,9.37,39.46,75.22-15.02,64.44-7.41-1.47-14.29-5.24-21.52-7.2l13.78,12.29c15.61,15.18,22.69,43.7,2.06,58.14-22.67,15.86-46.23-3.37-56.51-23.76-1.86-3.7-2.51-8.53-5.43-11.37,1.61,15.87,2.08,33.2-7.63,46.83-14.54,20.39-44.66,17.75-54.45-5.66-6.9-16.51-1.72-33.61,4.91-49.32-4.68,3.77-8.01,9.11-12.6,13.37-50,46.4-93.86-27.79-34.36-54.41l12.57-5.74c-10.06.43-19.94,1.9-29.99-.14-46.28-9.42-39.32-67.52,7.82-65.33,10.92.51,20.14,5.18,30.33,8.32l-10.46-9.03c-20.59-15.97-27.98-53.93,1.41-64.81,27.08-10.03,44.65,15.24,53.38,36.67.46,1.14-.43,2,1.77,1.87-1.92-16.94-2.21-34.13,8.7-48.27,11.4-14.78,33.4-16.68,46.64-2.93,15.57,16.18,10.19,42.08.9,60.05ZM541.7,269.73c-37.31-41.68-100.28,13.35-65.11,55.66,36.93,44.42,103.02-13.3,65.11-55.66Z"/>
  </g>
  <path class="cls-2" d="M886.87,111.49c-.19-26.27-10.8-51.41-35.87-65.61-37.02-20.97-77.68,1.77-104.37,28.49l-9.67-8.53c-27.1-24.01-65.72-39.75-99.27-17.25-37.49,25.14-37.88,69.75-21.48,108.07,20.67,48.3,65.68,85.9,111.93,108.52,6,2.93,12.34,5.28,18.35,8.19h1.17c19.92-8.5,39.22-18.59,56.87-31.16,31.65-22.53,61.07-53.89,75.06-91,4.77-12.66,7.38-26.33,7.28-39.71Z"/>
</svg>