<?xml version="1.0" encoding="UTF-8"?>
<svg id="Layer_1" data-name="Layer 1" xmlns="http://www.w3.org/2000/svg" viewBox="0 0 899.71 901.05">
  <defs>
    <style>
      .cls-1 {
        fill: #ba94c4;
      }

      .cls-2 {
        fill: #d8127b;
      }

      .cls-3 {
        fill: #8fc19c;
      }

      .cls-4 {
        fill: #fffaf2;
      }

      .cls-5 {
        fill: #fff570;
      }

      .cls-6 {
        fill: #dc89ba;
      }
    </style>
  </defs>
  <path class="cls-2" d="M476.07,852.56c-1.6.32-2.69-.33-3.69-1.18-.44-.37-.7-.84-.42-1.49.3-.7.92-.98,1.6-1.09,1.4-.22,3.32,1.27,3.37,2.59.02.46-.09.6-.86,1.16"/>
  <rect class="cls-2" x="751.78" y="738.18" width="147.93" height="162.74"/>
  <polygon class="cls-2" points="596.24 751.2 609.78 600.14 772.52 600.14 772.52 751.2 596.24 751.2"/>
  <polygon class="cls-5" points="450.28 749.99 450.28 598.92 589.04 598.92 596.24 751.2 450.28 749.99"/>
  <polygon class="cls-1" points="449.75 901.05 450.28 749.99 600.81 901.05 449.75 901.05"/>
  <polygon class="cls-2" points="600.81 749.99 600.81 901.05 450.28 749.99 600.81 749.99"/>
  <polygon class="cls-4" points="602.79 675.67 683.59 598.37 598.42 598.37 531.45 675.67 602.79 752.98 683.59 752.98 602.79 675.67"/>
  <polygon class="cls-6" points="751.78 901.05 600.71 901.05 751.78 749.99 751.78 901.05"/>
  <polygon class="cls-3" points="600.71 749.99 751.78 749.99 600.71 901.05 600.71 749.99"/>
  <polygon class="cls-6" points="899.71 452.76 751.78 600.68 899.71 600.68 899.71 452.76"/>
  <polygon class="cls-4" points="751.78 450.98 751.78 600.68 899.71 452.76 899.71 450.98 751.78 450.98"/>
  <polygon class="cls-5" points="600.71 450.98 600.71 600.68 750.41 450.98 600.71 450.98"/>
  <polygon class="cls-4" points="750.36 450.98 596.24 598.92 751.78 600.68 751.78 450.98 750.36 450.98"/>
  <polygon class="cls-1" points="899.71 600.93 751.78 600.68 753.52 738.75 899.71 738.75 899.71 600.93"/>
  <polygon class="cls-3" points="899.71 659.68 829.48 600.68 752.67 674.11 752.67 752.98 829.48 668.5 899.71 740.27 899.71 659.68"/>
  <polygon class="cls-5" points="899.71 731.6 827.31 667.41 751.78 749.99 751.78 819.55 827.31 738.75 899.71 816.19 899.71 731.6"/>
  <path class="cls-4" d="M603.57,751.16c3.63,3.88,6.54,7.53,9.41,12.05,13.64,21.51,24.85,45.85,38.69,67.13,21.74,33.42,70.77,32.09,89.02-3.69,23.11-45.31-28.33-92.96-71.88-66.53-7.44,4.52-12.57,10.37-17.83,17.14l-13.46-24.86c34.7-39.48,99.55-32.6,125.11,13.5,30.02,54.16-12.22,119.14-73.74,114.82-55.14-3.87-72.32-62.62-97.44-102.47-33.76-53.56-111.73-14.76-92.41,42.37,11.73,34.69,57.3,45.13,83.71,19.83,1.32-1.27,7.8-9.89,8.51-9.71l13.75,23.72c-30.39,35.14-85.11,34.95-115.82.1-32.76-37.18-22.2-95.35,21.18-118.75,31.28-16.88,69.15-10.4,93.2,15.34Z"/>
  <polygon class="cls-2" points="450.28 450.98 450.28 599.59 601.35 598.92 601.35 450.98 450.28 450.98"/>
  <path class="cls-1" d="M453.71,599.59c1.78-16.97,8.46-33.72,20.46-45.85,10.9-11.01,26.38-17.79,41.98-16.9,17.35.99,31.44,12.4,48.17,15.71,16.79,3.32,35.15-2.98,46.36-15.91,6.62-7.63,10.76-17.18,17.48-24.72,9.81-10.99,25.05-16.88,39.7-15.34,11.65,1.23,22.36,6.75,33.58,10.13,7.79,2.35,16.6,3.69,24.6,1.53s17.21-11.74,26.07-7.96c0,0-.14,7.66,0,16.66v28.52l-.32,55.22"/>
  <path class="cls-4" d="M899.71,796.79c-40.14-14.27-8.87-77.48-25.73-106.96-8.36-14.62-25.18-22.19-41.52-26.28-5.53-1.39-11.32-2.57-15.9-5.96-7.77-5.75-9.19-15.24-9.89-24.24-.83-10.61-.34-21.39-.35-32.02l-46.63-.64c-.07,14.7.12,31.52,0,46.26-.05,6.59.32,13.38,3.05,19.38,6.38,13.99,23.14,19.46,38.19,22.62,15.05,3.16,31.77,6.41,40.97,18.73,5.81,7.79,7.46,17.89,7.86,27.6,1.12,26.9-8.58,51.65,2.18,77.89,8.04,19.61,29.42,31.11,47.76,40.53v-56.89Z"/>
  <path class="cls-3" d="M453.73,599.59s-.02.97-.02,1.18c0,40.38,32.74,73.12,73.12,73.12s73.12-32.74,73.12-73.12c0-.21-.01-.42-.02-.63l-146.21-.55Z"/>
  <g id="E9FF7U.tif">
    <path class="cls-3" d="M722.55,567.25c.99.38.74-.18,1.14-.6,2.72-2.88,4.89-6.24,8.15-8.73,20.82-15.87,40.99,10.04,20.27,26.05l-11.96,6.25c4.71-.02,9.45-.9,14.15-.04,25.67,4.67,19.67,37.5-7.49,32.12-3.69-.73-7.12-2.61-10.73-3.59l6.87,6.13c7.78,7.57,11.31,21.78,1.03,28.98-11.3,7.91-23.04-1.68-28.17-11.84-.93-1.84-1.25-4.25-2.7-5.67.8,7.91,1.04,16.55-3.8,23.34-7.25,10.17-22.26,8.85-27.14-2.82-3.44-8.23-.86-16.75,2.45-24.59-2.33,1.88-3.99,4.54-6.28,6.66-24.93,23.13-46.79-13.85-17.13-27.12l6.27-2.86c-5.02.21-9.94.95-14.95-.07-23.07-4.7-19.6-33.66,3.9-32.57,5.44.25,10.04,2.58,15.12,4.15l-5.22-4.5c-10.26-7.96-13.95-26.88.7-32.31,13.5-5,22.26,7.59,26.61,18.28.23.57-.21,1,.88.93-.96-8.44-1.1-17.02,4.33-24.06,5.68-7.37,16.65-8.32,23.25-1.46,7.76,8.07,5.08,20.98.45,29.93ZM719.78,585.44c-18.6-20.78-49.99,6.66-32.46,27.75,18.41,22.14,51.36-6.63,32.46-27.75Z"/>
  </g>
  <path class="cls-2" d="M891.85,506.56c-.1-13.09-5.38-25.63-17.88-32.71-18.45-10.45-38.72.88-52.03,14.2l-4.82-4.25c-13.51-11.97-32.76-19.81-49.49-8.6-18.69,12.53-18.88,34.77-10.71,53.87,10.31,24.08,32.74,42.82,55.8,54.1,2.99,1.46,6.15,2.63,9.15,4.08h.58c9.93-4.24,19.55-9.27,28.35-15.53,15.78-11.23,30.45-26.86,37.42-45.36,2.38-6.31,3.68-13.13,3.63-19.8Z"/>
  <g>
    <path class="cls-2" d="M48.71,476.95c-.32-1.6.33-2.69,1.18-3.69.37-.44.84-.7,1.49-.42.7.3.98.92,1.09,1.6.22,1.4-1.27,3.32-2.59,3.37-.46.02-.6-.09-1.16-.86"/>
    <rect class="cls-2" x=".34" y="752.65" width="162.74" height="147.93"/>
    <polygon class="cls-2" points="150.06 597.11 301.13 610.65 301.13 773.39 150.06 773.39 150.06 597.11"/>
    <polygon class="cls-6" points="151.28 451.16 302.35 451.16 302.35 589.91 150.06 597.11 151.28 451.16"/>
    <polygon class="cls-1" points=".21 450.62 151.28 451.16 .21 601.69 .21 450.62"/>
    <polygon class="cls-2" points="151.28 601.69 .21 601.69 151.28 451.16 151.28 601.69"/>
    <polygon class="cls-4" points="225.59 603.66 302.9 684.46 302.9 599.3 225.59 532.32 148.29 603.66 148.29 684.46 225.59 603.66"/>
    <polygon class="cls-6" points=".21 752.65 .21 601.59 151.28 752.65 .21 752.65"/>
    <polygon class="cls-3" points="151.28 601.59 151.28 752.65 .21 601.59 151.28 601.59"/>
    <polygon class="cls-6" points="448.51 900.58 300.58 752.65 300.58 900.58 448.51 900.58"/>
    <polygon class="cls-4" points="450.28 752.65 300.58 752.65 448.51 900.58 450.28 900.58 450.28 752.65"/>
    <polygon class="cls-5" points="450.28 601.59 300.58 601.59 450.28 751.29 450.28 601.59"/>
    <polygon class="cls-4" points="450.28 751.23 302.35 597.12 300.58 752.65 450.28 752.65 450.28 751.23"/>
    <polygon class="cls-1" points="300.34 900.58 300.58 752.65 162.52 754.39 162.52 900.58 300.34 900.58"/>
    <polygon class="cls-3" points="241.59 900.58 300.58 830.35 227.16 753.54 148.29 753.54 232.77 830.35 161 900.58 241.59 900.58"/>
    <polygon class="cls-5" points="169.66 900.58 233.86 828.19 151.28 752.65 81.71 752.65 162.52 828.19 85.07 900.58 169.66 900.58"/>
    <path class="cls-5" d="M150.1,604.44c-3.88,3.63-7.53,6.54-12.05,9.41-21.51,13.64-45.85,24.85-67.13,38.69-33.42,21.74-32.09,70.77,3.69,89.02,45.31,23.11,92.96-28.33,66.53-71.88-4.52-7.44-10.37-12.57-17.14-17.83l24.86-13.46c39.48,34.7,32.6,99.55-13.5,125.11-54.16,30.02-119.14-12.22-114.82-73.74,3.87-55.14,62.62-72.32,102.47-97.44,53.56-33.76,14.76-111.73-42.37-92.41-34.69,11.73-45.13,57.3-19.83,83.71,1.27,1.32,9.89,7.8,9.71,8.51l-23.72,13.75c-35.14-30.39-34.95-85.11-.1-115.82,37.18-32.76,95.35-22.2,118.75,21.18,16.88,31.28,10.4,69.15-15.34,93.2Z"/>
    <polygon class="cls-4" points="450.28 451.16 301.68 451.16 302.35 602.22 450.28 602.22 450.28 451.16"/>
    <path class="cls-1" d="M301.68,454.58c16.97,1.78,33.72,8.46,45.85,20.46,11.01,10.9,17.79,26.38,16.9,41.98-.99,17.35-12.4,31.44-15.71,48.17-3.32,16.79,2.98,35.15,15.91,46.36,7.63,6.62,17.18,10.76,24.72,17.48,10.99,9.81,16.88,25.05,15.34,39.7-1.23,11.65-6.75,22.36-10.13,33.58-2.35,7.79-3.69,16.6-1.53,24.6,2.18,8.07,11.74,17.21,7.96,26.07,0,0-7.66-.14-16.66,0h-28.52l-55.22-.32"/>
    <path class="cls-4" d="M104.48,900.58c14.27-40.14,77.48-8.87,106.96-25.73,14.62-8.36,22.19-25.18,26.28-41.52,1.39-5.53,2.57-11.32,5.96-15.9,5.75-7.77,15.24-9.19,24.24-9.89,10.61-.83,21.39-.34,32.02-.35l.64-46.63c-14.7-.07-31.52.12-46.26,0-6.59-.05-13.38.32-19.38,3.05-13.99,6.38-19.46,23.14-22.62,38.19-3.16,15.05-6.41,31.77-18.73,40.97-7.79,5.81-17.89,7.46-27.6,7.86-26.9,1.12-51.65-8.58-77.89,2.18-19.61,8.04-31.11,29.42-40.53,47.76h56.89Z"/>
    <path class="cls-2" d="M301.68,454.6s-.97-.02-1.18-.02c-40.38,0-73.12,32.74-73.12,73.12s32.74,73.12,73.12,73.12c.21,0,.42-.01.63-.02l.55-146.21Z"/>
    <g id="E9FF7U.tif-2" data-name="E9FF7U.tif">
      <path class="cls-6" d="M334.02,723.42c-.38.99.18.74.6,1.14,2.88,2.72,6.24,4.89,8.73,8.15,15.87,20.82-10.04,40.99-26.05,20.27l-6.25-11.96c.02,4.71.9,9.45.04,14.15-4.67,25.67-37.5,19.67-32.12-7.49.73-3.69,2.61-7.12,3.59-10.73l-6.13,6.87c-7.57,7.78-21.78,11.31-28.98,1.03-7.91-11.3,1.68-23.04,11.84-28.17,1.84-.93,4.25-1.25,5.67-2.7-7.91.8-16.55,1.04-23.34-3.8-10.17-7.25-8.85-22.26,2.82-27.14,8.23-3.44,16.75-.86,24.59,2.45-1.88-2.33-4.54-3.99-6.66-6.28-23.13-24.93,13.85-46.79,27.12-17.13l2.86,6.27c-.21-5.02-.95-9.94.07-14.95,4.7-23.07,33.66-19.6,32.57,3.9-.25,5.44-2.58,10.04-4.15,15.12l4.5-5.22c7.96-10.26,26.88-13.95,32.31.7,5,13.5-7.59,22.26-18.28,26.61-.57.23-1-.21-.93.88,8.44-.96,17.02-1.1,24.06,4.33,7.37,5.68,8.32,16.65,1.46,23.25-8.07,7.76-20.98,5.08-29.93.45ZM315.82,720.66c20.78-18.6-6.66-49.99-27.75-32.46-22.14,18.41,6.63,51.36,27.75,32.46Z"/>
    </g>
    <path class="cls-3" d="M446.01,800.74c-.1-13.09-5.38-25.63-17.88-32.71-18.45-10.45-38.72.88-52.03,14.2l-4.82-4.25c-13.51-11.97-32.76-19.81-49.49-8.6-18.69,12.53-18.88,34.77-10.71,53.87,10.31,24.08,32.74,42.82,55.8,54.1,2.99,1.46,6.15,2.63,9.15,4.08h.58c9.93-4.24,19.55-9.27,28.35-15.53,15.78-11.23,30.45-26.86,37.42-45.36,2.38-6.31,3.68-13.13,3.63-19.8Z"/>
  </g>
  <path class="cls-2" d="M423.63,48.5c1.6-.32,2.69.33,3.69,1.18.44.37.7.84.42,1.49-.3.7-.92.98-1.6,1.09-1.4.22-3.32-1.27-3.37-2.59-.02-.46.09-.6.86-1.16"/>
  <rect class="cls-2" y=".13" width="147.93" height="162.74"/>
  <polygon class="cls-2" points="303.46 149.85 289.93 300.91 127.19 300.91 127.19 149.85 303.46 149.85"/>
  <polygon class="cls-5" points="449.42 151.07 449.42 302.13 310.67 302.13 303.46 149.85 449.42 151.07"/>
  <polygon class="cls-1" points="449.96 0 449.42 151.07 298.89 0 449.96 0"/>
  <polygon class="cls-2" points="298.89 151.07 298.89 0 449.42 151.07 298.89 151.07"/>
  <polygon class="cls-4" points="296.92 225.38 216.12 302.69 301.28 302.69 368.26 225.38 296.92 148.08 216.12 148.08 296.92 225.38"/>
  <polygon class="cls-6" points="147.93 0 298.99 0 147.93 151.07 147.93 0"/>
  <polygon class="cls-3" points="298.99 151.07 147.93 151.07 298.99 0 298.99 151.07"/>
  <polygon class="cls-6" points="0 448.3 147.93 300.37 0 300.37 0 448.3"/>
  <polygon class="cls-4" points="147.93 450.07 147.93 300.37 0 448.3 0 450.07 147.93 450.07"/>
  <polygon class="cls-5" points="298.99 450.07 298.99 300.37 149.29 450.07 298.99 450.07"/>
  <polygon class="cls-4" points="149.35 450.07 303.46 302.13 147.93 300.37 147.93 450.07 149.35 450.07"/>
  <polygon class="cls-1" points="0 300.12 147.93 300.37 146.19 162.3 0 162.3 0 300.12"/>
  <polygon class="cls-3" points="0 241.37 70.23 300.37 147.04 226.94 147.04 148.08 70.23 232.56 0 160.78 0 241.37"/>
  <polygon class="cls-5" points="0 169.45 72.39 233.64 147.93 151.07 147.93 81.5 72.39 162.3 0 84.86 0 169.45"/>
  <path class="cls-4" d="M296.14,149.89c-3.63-3.88-6.54-7.53-9.41-12.05-13.64-21.51-24.85-45.85-38.69-67.13-21.74-33.42-70.77-32.09-89.02,3.69-23.11,45.31,28.33,92.96,71.88,66.53,7.44-4.52,12.57-10.37,17.83-17.14l13.46,24.86c-34.7,39.48-99.55,32.6-125.11-13.5-30.02-54.16,12.22-119.14,73.74-114.82,55.14,3.87,72.32,62.62,97.44,102.47,33.76,53.56,111.73,14.76,92.41-42.37-11.73-34.69-57.3-45.13-83.71-19.83-1.32,1.27-7.8,9.89-8.51,9.71l-13.75-23.72c30.39-35.14,85.11-34.95,115.82-.1,32.76,37.18,22.2,95.35-21.18,118.75-31.28,16.88-69.15,10.4-93.2-15.34Z"/>
  <polygon class="cls-2" points="449.42 450.07 449.42 301.46 298.36 302.13 298.36 450.07 449.42 450.07"/>
  <path class="cls-1" d="M446,301.46c-1.78,16.97-8.46,33.72-20.46,45.85-10.9,11.01-26.38,17.79-41.98,16.9-17.35-.99-31.44-12.4-48.17-15.71-16.79-3.32-35.15,2.98-46.36,15.91-6.62,7.63-10.76,17.18-17.48,24.72-9.81,10.99-25.05,16.88-39.7,15.34-11.65-1.23-22.36-6.75-33.58-10.13-7.79-2.35-16.6-3.69-24.6-1.53s-17.21,11.74-26.07,7.96c0,0,.14-7.66,0-16.66v-28.52l.32-55.22"/>
  <path class="cls-4" d="M0,104.26c40.14,14.27,8.87,77.48,25.73,106.96,8.36,14.62,25.18,22.19,41.52,26.28,5.53,1.39,11.32,2.57,15.9,5.96,7.77,5.75,9.19,15.24,9.89,24.24.83,10.61.34,21.39.35,32.02l46.63.64c.07-14.7-.12-31.52,0-46.26.05-6.59-.32-13.38-3.05-19.38-6.38-13.99-23.14-19.46-38.19-22.62-15.05-3.16-31.77-6.41-40.97-18.73-5.81-7.79-7.46-17.89-7.86-27.6-1.12-26.9,8.58-51.65-2.18-77.89C39.72,68.3,18.34,56.8,0,47.38v56.89Z"/>
  <path class="cls-3" d="M445.98,301.46s.02-.97.02-1.18c0-40.38-32.74-73.12-73.12-73.12s-73.12,32.74-73.12,73.12c0,.21.01.42.02.63l146.21.55Z"/>
  <g id="E9FF7U.tif-3" data-name="E9FF7U.tif">
    <path class="cls-3" d="M177.16,333.8c-.99-.38-.74.18-1.14.6-2.72,2.88-4.89,6.24-8.15,8.73-20.82,15.87-40.99-10.04-20.27-26.05l11.96-6.25c-4.71.02-9.45.9-14.15.04-25.67-4.67-19.67-37.5,7.49-32.12,3.69.73,7.12,2.61,10.73,3.59l-6.87-6.13c-7.78-7.57-11.31-21.78-1.03-28.98,11.3-7.91,23.04,1.68,28.17,11.84.93,1.84,1.25,4.25,2.7,5.67-.8-7.91-1.04-16.55,3.8-23.34,7.25-10.17,22.26-8.85,27.14,2.82,3.44,8.23.86,16.75-2.45,24.59,2.33-1.88,3.99-4.54,6.28-6.66,24.93-23.13,46.79,13.85,17.13,27.12l-6.27,2.86c5.02-.21,9.94-.95,14.95.07,23.07,4.7,19.6,33.66-3.9,32.57-5.44-.25-10.04-2.58-15.12-4.15l5.22,4.5c10.26,7.96,13.95,26.88-.7,32.31-13.5,5-22.26-7.59-26.61-18.28-.23-.57.21-1-.88-.93.96,8.44,1.1,17.02-4.33,24.06-5.68,7.37-16.65,8.32-23.25,1.46-7.76-8.07-5.08-20.98-.45-29.93ZM179.92,315.61c18.6,20.78,49.99-6.66,32.46-27.75-18.41-22.14-51.36,6.63-32.46,27.75Z"/>
  </g>
  <path class="cls-2" d="M7.86,394.49c.1,13.09,5.38,25.63,17.88,32.71,18.45,10.45,38.72-.88,52.03-14.2l4.82,4.25c13.51,11.97,32.76,19.81,49.49,8.6,18.69-12.53,18.88-34.77,10.71-53.87-10.31-24.08-32.74-42.82-55.8-54.1-2.99-1.46-6.15-2.63-9.15-4.08h-.58c-9.93,4.24-19.55,9.27-28.35,15.53-15.78,11.23-30.45,26.86-37.42,45.36-2.38,6.31-3.68,13.13-3.63,19.8Z"/>
  <g>
    <path class="cls-2" d="M851,424.11c.32,1.6-.33,2.69-1.18,3.69-.37.44-.84.7-1.49.42-.7-.3-.98-.92-1.09-1.6-.22-1.4,1.27-3.32,2.59-3.37.46-.02.6.09,1.16.86"/>
    <rect class="cls-2" x="736.62" y=".47" width="162.74" height="147.93"/>
    <polygon class="cls-2" points="749.65 303.94 598.58 290.4 598.58 127.66 749.65 127.66 749.65 303.94"/>
    <polygon class="cls-6" points="748.43 449.89 597.36 449.89 597.36 311.14 749.65 303.94 748.43 449.89"/>
    <polygon class="cls-1" points="899.49 450.43 748.43 449.89 899.49 299.37 899.49 450.43"/>
    <polygon class="cls-2" points="748.43 299.37 899.49 299.37 748.43 449.89 748.43 299.37"/>
    <polygon class="cls-4" points="674.11 297.39 596.81 216.59 596.81 301.75 674.11 368.73 751.42 297.39 751.42 216.59 674.11 297.39"/>
    <polygon class="cls-6" points="899.49 148.4 899.49 299.46 748.43 148.4 899.49 148.4"/>
    <polygon class="cls-3" points="748.43 299.46 748.43 148.4 899.49 299.46 748.43 299.46"/>
    <polygon class="cls-6" points="451.2 .47 599.12 148.4 599.12 .47 451.2 .47"/>
    <polygon class="cls-4" points="449.42 148.4 599.12 148.4 451.2 .47 449.42 .47 449.42 148.4"/>
    <polygon class="cls-5" points="449.42 299.46 599.12 299.46 449.42 149.76 449.42 299.46"/>
    <polygon class="cls-4" points="449.42 149.82 597.36 303.94 599.12 148.4 449.42 148.4 449.42 149.82"/>
    <polygon class="cls-1" points="599.37 .47 599.12 148.4 737.19 146.66 737.19 .47 599.37 .47"/>
    <polygon class="cls-3" points="658.12 .47 599.12 70.7 672.55 147.51 751.42 147.51 666.94 70.7 738.71 .47 658.12 .47"/>
    <polygon class="cls-5" points="730.04 .47 665.85 72.86 748.43 148.4 817.99 148.4 737.19 72.86 814.63 .47 730.04 .47"/>
    <path class="cls-5" d="M749.6,296.61c3.88-3.63,7.53-6.54,12.05-9.41,21.51-13.64,45.85-24.85,67.13-38.69,33.42-21.74,32.09-70.77-3.69-89.02-45.31-23.11-92.96,28.33-66.53,71.88,4.52,7.44,10.37,12.57,17.14,17.83l-24.86,13.46c-39.48-34.7-32.6-99.55,13.5-125.11,54.16-30.02,119.14,12.22,114.82,73.74-3.87,55.14-62.62,72.32-102.47,97.44-53.56,33.76-14.76,111.73,42.37,92.41,34.69-11.73,45.13-57.3,19.83-83.71-1.27-1.32-9.89-7.8-9.71-8.51l23.72-13.75c35.14,30.39,34.95,85.11.1,115.82-37.18,32.76-95.35,22.2-118.75-21.18-16.88-31.28-10.4-69.15,15.34-93.2Z"/>
    <polygon class="cls-4" points="449.42 449.89 598.03 449.89 597.36 298.83 449.42 298.83 449.42 449.89"/>
    <path class="cls-1" d="M598.03,446.47c-16.97-1.78-33.72-8.46-45.85-20.46-11.01-10.9-17.79-26.38-16.9-41.98.99-17.35,12.4-31.44,15.71-48.17,3.32-16.79-2.98-35.15-15.91-46.36-7.63-6.62-17.18-10.76-24.72-17.48-10.99-9.81-16.88-25.05-15.34-39.7,1.23-11.65,6.75-22.36,10.13-33.58,2.35-7.79,3.69-16.6,1.53-24.6-2.18-8.07-11.74-17.21-7.96-26.07,0,0,7.66.14,16.66,0h28.52l55.22.32"/>
    <path class="cls-4" d="M795.23.47c-14.27,40.14-77.48,8.87-106.96,25.73-14.62,8.36-22.19,25.18-26.28,41.52-1.39,5.53-2.57,11.32-5.96,15.9-5.75,7.77-15.24,9.19-24.24,9.89-10.61.83-21.39.34-32.02.35l-.64,46.63c14.7.07,31.52-.12,46.26,0,6.59.05,13.38-.32,19.38-3.05,13.99-6.38,19.46-23.14,22.62-38.19,3.16-15.05,6.41-31.77,18.73-40.97,7.79-5.81,17.89-7.46,27.6-7.86,26.9-1.12,51.65,8.58,77.89-2.18,19.61-8.04,31.11-29.42,40.53-47.76h-56.89Z"/>
    <path class="cls-2" d="M598.03,446.45s.97.02,1.18.02c40.38,0,73.12-32.74,73.12-73.12s-32.74-73.12-73.12-73.12c-.21,0-.42.01-.63.02l-.55,146.21Z"/>
    <g id="E9FF7U.tif-4" data-name="E9FF7U.tif">
      <path class="cls-6" d="M565.69,177.63c.38-.99-.18-.74-.6-1.14-2.88-2.72-6.24-4.89-8.73-8.15-15.87-20.82,10.04-40.99,26.05-20.27l6.25,11.96c-.02-4.71-.9-9.45-.04-14.15,4.67-25.67,37.5-19.67,32.12,7.49-.73,3.69-2.61,7.12-3.59,10.73l6.13-6.87c7.57-7.78,21.78-11.31,28.98-1.03,7.91,11.3-1.68,23.04-11.84,28.17-1.84.93-4.25,1.25-5.67,2.7,7.91-.8,16.55-1.04,23.34,3.8,10.17,7.25,8.85,22.26-2.82,27.14-8.23,3.44-16.75.86-24.59-2.45,1.88,2.33,4.54,3.99,6.66,6.28,23.13,24.93-13.85,46.79-27.12,17.13l-2.86-6.27c.21,5.02.95,9.94-.07,14.95-4.7,23.07-33.66,19.6-32.57-3.9.25-5.44,2.58-10.04,4.15-15.12l-4.5,5.22c-7.96,10.26-26.88,13.95-32.31-.7-5-13.5,7.59-22.26,18.28-26.61.57-.23,1,.21.93-.88-8.44.96-17.02,1.1-24.06-4.33-7.37-5.68-8.32-16.65-1.46-23.25,8.07-7.76,20.98-5.08,29.93-.45ZM583.88,180.39c-20.78,18.6,6.66,49.99,27.75,32.46,22.14-18.41-6.63-51.36-27.75-32.46Z"/>
    </g>
    <path class="cls-3" d="M453.69,100.31c.1,13.09,5.38,25.63,17.88,32.71,18.45,10.45,38.72-.88,52.03-14.2l4.82,4.25c13.51,11.97,32.76,19.81,49.49,8.6,18.69-12.53,18.88-34.77,10.71-53.87-10.31-24.08-32.74-42.82-55.8-54.1-2.99-1.46-6.15-2.63-9.15-4.08h-.58c-9.93,4.24-19.55,9.27-28.35,15.53-15.78,11.23-30.45,26.86-37.42,45.36-2.38,6.31-3.68,13.13-3.63,19.8Z"/>
  </g>
</svg>
