<?xml version="1.0" encoding="UTF-8"?>
<svg id="Layer_1" data-name="Layer 1" xmlns="http://www.w3.org/2000/svg" viewBox="0 0 189.55 92.15">
  <defs>
    <style>
      .cls-1 {
        fill: #231f20;
      }
    </style>
  </defs>
  <path class="cls-1" d="M183.64,23.56c-15.26-27.54-53.99-31.64-74.71-8.06l8.04,14.84c3.14-4.04,6.2-7.54,10.65-10.24,26.01-15.78,56.73,12.67,42.93,39.73-.85,1.67-2.41,5.13-3.89,7.93-.01-.03-.03-.07-.04-.1-4.12-10.36-7.57-21.01-10.24-31.66l-.28-1.11-1.77-.13c-.45-.03-.9-.06-1.35-.11-3.83-.35-7.37-1.26-10.33-2.1-2.3-.66-4.53-1.57-6.82-2.8l-2.11-1.14-.53,2.12c-3.18,12.75-7.16,25.54-11.81,38.01l-2.22,7.34c-2.42-2.5-9.13-11.72-10.65-14.06-8.27-12.71-14.96-27.25-23.11-40.09-1.71-2.7-3.45-4.88-5.62-7.2C65.41-.63,42.79-4.5,24.11,5.58-1.8,19.56-8.1,54.3,11.46,76.5c18.34,20.81,51.02,20.93,69.16-.06l-8.21-14.17c-.43-.1-4.29,5.04-5.08,5.8-15.77,15.11-42.99,8.88-49.99-11.84C5.8,22.11,52.37-1.06,72.53,30.93c6.28,9.96,31.98,50.84,39.27,60.98l14.94.24c.08-.18.15-.36.22-.53h.01s.1-.28.1-.28c.43-1.06.81-2.11,1.14-3.17l15.31-42.66c2.69,8.34,6.84,18.23,11.2,28.6,2.46,5.86,5,11.92,7.28,17.73h12.27s9.18-23.12,9.18-23.12c7.48-13.13,8.67-29.86.19-45.16"/>
</svg>