<?xml version="1.0" encoding="UTF-8"?>
<svg id="Layer_1" data-name="Layer 1" xmlns="http://www.w3.org/2000/svg" viewBox="0 0 172.21 108.35">
  <defs>
    <style>
      .cls-1 {
        fill: #fffbf2;
      }
    </style>
  </defs>
  <path class="cls-1" d="M25.44,73.62l20.63-55.22,16.31,45.22-36.94,10ZM139.82,72.02c-3.85-30.97-62.02-20.58-48.77-51.44,5.09-11.86,29.06-9,35.21,2.15l9.16-6.2C119.47-13.7,68.78.06,77.77,37.36c5.54,22.98,50.11,17.89,49.34,41.81-.52,16-20.38,19.82-32.47,14.22-5.85-2.71-9.69-7.61-12.25-13.42-4.76-10.79-8.12-22.24-12.08-33.34-4.23-11.87-8.65-23.67-13.11-35.45-1.2-3.18-2.41-6.36-3.62-9.54-5.17.2-10.34.4-15.51.59C25.78,36.65,12.3,73.93,0,108.35h12.21s2.89-9.43,4.62-13.51c3.68-8.68,16.45-12.47,25.74-14.06,9.29-1.59,14.27-1.07,22.82-5.02-.71.34,5.2,11.21,5.69,12.3,7.55,16.84,27.52,23.19,44.68,19.09,13.61-3.25,24.03-14.76,24.38-28.95.05-2.06-.07-4.12-.32-6.17"/>
  <path class="cls-1" d="M171.37,97.39c-2.17-3.92-7.69-4.51-10.64-1.15l1.15,2.11c.45-.58.88-1.07,1.52-1.46,3.7-2.25,8.08,1.81,6.11,5.66-1.55,3.04-5.72,3.16-7.57.31-1.18-1.81-2.13-3.88-3.29-5.71-.25-.39-.49-.69-.8-1.03-2.04-2.19-5.27-2.74-7.93-1.3-3.69,1.99-4.59,6.94-1.8,10.1,2.61,2.96,7.27,2.98,9.85,0l-1.17-2.02c-.06-.02-.61.72-.72.83-2.25,2.15-6.12,1.26-7.12-1.69-1.64-4.86,4.99-8.16,7.86-3.6,2.14,3.39,3.6,8.39,8.29,8.72,5.23.37,8.83-5.16,6.27-9.77"/>
</svg>