<?xml version="1.0" encoding="UTF-8"?>
<svg id="Layer_1" data-name="Layer 1" xmlns="http://www.w3.org/2000/svg" viewBox="0 0 189.6 118.32">
  <defs>
    <style>
      .cls-1 {
        fill: #fefdfd;
      }

      .cls-2 {
        fill: #d6127b;
      }

      .cls-3 {
        fill: #fefefe;
      }
    </style>
  </defs>
  <path class="cls-3" d="M0,118.32V0h189.6v118.32H0ZM50,86.1c8.66-1.66,15.91-1.29,24.01-5.18.41,1.31.88,2.36,1.44,3.48l4.1,8.16c3.68,7.34,9.09,13.33,16.59,16.85,8.11,3.81,17.12,4.78,25.97,3.25,6.87-1.18,13.03-4.26,17.94-9.1,6.68-6.59,9.59-15.47,8.76-24.75-.54-6.02-2.78-11.33-7.35-15.41-11.79-10.51-31.2-12.21-39.83-20.75-2.66-2.63-4.06-6.07-3.65-9.87.33-3.13,1.19-6.24,2.94-8.87s4.83-4.35,8.09-5.12c6.92-1.63,14.18-.22,20.27,3.34,2.36,1.57,4.27,3.27,5.73,5.79l9.18-6.25c-3.9-7.44-10.3-12.73-18.19-15.12-9.79-2.86-20.43-1.26-28.78,4.58-7.33,5.13-11.6,13.19-11.72,22.12-.05,3.73.37,7.3,1.52,10.86,6.81,21,50.05,16.88,48.79,40.45-.26,4.88-2.5,9.22-6.51,12.05-6.47,4.58-15.5,5.15-22.95,2.87-7.75-2.38-12.38-8.05-15.47-15.26-2.44-5.69-4.42-11.33-6.49-17.21l-9.59-27.3L62.44,6.81l-15.55.57L8.87,113.31l12.23.02c1.36-4.16,2.55-8.15,4.12-12.17,3.08-9.53,15.97-13.38,24.78-15.06ZM169.38,101.26c.55.93.63,1.34,1.24,2.09,1.63-2.33,4.54-2.72,6.54-.95s1.95,4.84-.17,6.55-5.1,1.08-6.46-1.3l-3.12-5.46c-1.98-3.47-6.57-4.16-9.64-1.86s-3.46,6.91-.9,9.69,7.2,2.88,9.78-.05c-.31-.84-.64-1.5-1.26-2.05-1.63,2.38-4.83,2.55-6.7.66s-1.55-5.03.63-6.5c2.29-1.54,5.09-.72,6.42,1.78.92,1.71,1.82,3.36,2.86,5.01,2.18,3.45,6.48,4.41,9.74,1.94,3.02-2.29,3.53-6.81.84-9.71-2.56-2.75-7.26-2.86-9.79.16Z"/>
  <path class="cls-2" d="M50,86.1c-8.81,1.69-21.69,5.53-24.78,15.06-1.56,4.02-2.76,8.02-4.12,12.17l-12.23-.02L46.89,7.38l15.55-.57,12.35,32.9,9.59,27.3c2.07,5.88,4.04,11.51,6.49,17.21,3.1,7.22,7.73,12.89,15.47,15.26,7.45,2.29,16.48,1.71,22.95-2.87,4.01-2.84,6.25-7.17,6.51-12.05,1.27-23.57-41.98-19.45-48.79-40.45-1.15-3.56-1.57-7.13-1.52-10.86.12-8.93,4.39-16.99,11.72-22.12,8.35-5.84,18.98-7.44,28.78-4.58,7.89,2.39,14.29,7.68,18.19,15.12l-9.18,6.25c-1.46-2.52-3.37-4.22-5.73-5.79-6.08-3.56-13.35-4.97-20.27-3.34-3.26.77-6.26,2.37-8.09,5.12s-2.61,5.75-2.94,8.87c-.4,3.8,1,7.24,3.65,9.87,8.62,8.54,28.04,10.24,39.83,20.75,4.57,4.08,6.81,9.39,7.35,15.41.83,9.28-2.08,18.16-8.76,24.75-4.91,4.84-11.07,7.92-17.94,9.1-8.85,1.53-17.86.55-25.97-3.25-7.5-3.52-12.91-9.52-16.59-16.85l-4.1-8.16c-.56-1.11-1.03-2.16-1.44-3.48-8.1,3.9-15.34,3.52-24.01,5.18ZM71.14,68.66l-16.23-44.96-20.51,54.88,36.75-9.92Z"/>
  <path class="cls-2" d="M169.38,101.26c2.53-3.02,7.24-2.92,9.79-.16,2.69,2.9,2.18,7.42-.84,9.71-3.26,2.47-7.56,1.51-9.74-1.94-1.04-1.65-1.94-3.29-2.86-5.01-1.34-2.49-4.13-3.32-6.42-1.78-2.17,1.46-2.55,4.56-.63,6.5s5.07,1.72,6.7-.66c.62.55.95,1.21,1.26,2.05-2.58,2.93-7.13,2.92-9.78.05s-2.23-7.34.9-9.69,7.66-1.61,9.64,1.86l3.12,5.46c1.36,2.38,4.43,2.94,6.46,1.3s2.19-4.76.17-6.55-4.91-1.37-6.54.95c-.61-.75-.69-1.16-1.24-2.09Z"/>
  <polygon class="cls-1" points="71.14 68.66 34.39 78.58 54.9 23.7 71.14 68.66"/>
</svg>