<?xml version="1.0" encoding="UTF-8"?>
<svg id="Layer_1" data-name="Layer 1" xmlns="http://www.w3.org/2000/svg" viewBox="0 0 147.49 123.3">
  <defs>
    <style>
      .cls-1 {
        fill: #d7127b;
      }
    </style>
  </defs>
  <path class="cls-1" d="M16.93,111.12c-.7-.03-1.36.19-2.04.28l1.6-1.14c2.68-2.72-.74-6.06-3.44-3.36-.42.42-.67.95-1.01,1.42-.05.07,0,.14-.15.11.49-1.38.63-3.3-.65-4.31-1.09-.86-2.65-.51-3.33.67-.65,1.13-.46,2.36-.15,3.56-.16.03-.1-.04-.15-.12-.84-1.46-2.35-3.1-4.2-2.11-2.01,1.07-1.1,3.73.53,4.68l.84.55c-.76-.13-1.47-.37-2.26-.3-3.41.3-3.35,4.55.08,4.78.74.05,1.44-.15,2.16-.28l-.85.54c-4.02,2.5-.14,7.41,3,3.58.29-.35.48-.77.78-1.09-.32,1.2-.53,2.48.13,3.6.93,1.59,3.13,1.48,3.97-.13.56-1.08.36-2.32.09-3.45.24.18.33.52.5.77.94,1.37,2.82,2.52,4.3,1.16,1.34-1.24.55-3.22-.72-4.16l-1.11-.75c.54.07,1.07.27,1.62.31,4.03.24,4.25-4.62.45-4.79Z"/>
  <path class="cls-1" d="M143.54,77.34c-1.51-2.73-3.35-5.36-5.68-7.46-2.3-2.08-5-3.64-7.62-5.28-5.65-3.54-12.17-3.57-18.45-2.21-5.49,1.19-10.31,5.97-16.08,5.94-5.11-.03-7.66-6.82-9.52-10.58-.64-1.29-1.3-2.63-1.99-3.89l-9.62,5.25c.59,1.08,1.17,2.26,1.8,3.51,3.26,6.57,7.72,15.56,17.5,16.54,3.65.37,7.62-.5,10.92-2.03s6.57-3.76,10.28-4.56c5.86-1.26,11.4,1.68,15.65,5.51,1.49,1.35,2.77,2.92,3.76,4.67,3.3,5.87,3.33,12.91.28,18.89-.57,1.12-1.61,3.44-2.61,5.31,0-.02-.02-.05-.03-.07-2.76-6.94-5.07-14.08-6.86-21.21l-.19-.74-1.18-.09c-.3-.02-.6-.04-.91-.07-2.56-.23-4.94-.84-6.92-1.41-1.54-.44-3.04-1.05-4.57-1.88l-1.42-.76-.35,1.42c-2.13,8.54-4.79,17.11-7.91,25.47l-1.49,4.92c-1.62-1.67-6.12-7.85-7.14-9.42-5.54-8.52-10.03-18.26-15.48-26.86-1.15-1.81-2.31-3.27-3.77-4.82-9.62-10.3-24.77-12.89-37.29-6.14-17.35,9.37-21.58,32.63-8.47,47.51,12.28,13.94,34.18,14.02,46.34-.04l-5.5-9.49c-.29-.07-2.88,3.38-3.4,3.88-10.57,10.12-28.8,5.95-33.49-7.93-7.73-22.86,23.46-38.38,36.97-16.95,4.2,6.67,21.43,34.06,26.3,40.85l10.01.16c.05-.12.1-.24.15-.36h0s.07-.19.07-.19c.29-.71.54-1.41.76-2.12l10.26-28.58c1.8,5.59,4.58,12.22,7.5,19.16,1.65,3.93,3.35,7.98,4.88,11.88h8.22s6.15-15.49,6.15-15.49c5.01-8.79,5.81-20.01.13-30.26Z"/>
  <path class="cls-1" d="M107.2,60.87c2.82-1.08,5.52-2.31,10.46-2.49,0,0-.45-5.41-.68-7.14-2.9-22.03-46.64-14.64-36.68-36.59,3.83-8.44,21.85-6.4,26.48,1.53l6.89-4.41C101.68-9.74,63.57.04,70.33,26.58c4.14,16.25,42.67,10.32,36.88,34.29Z"/>
  <path class="cls-1" d="M20.79,64.33c7.01-7.81,25.97-6.93,35.8-10.62l2.29,5.31c.92.05,1.84.21,2.72.47,2.71.81,5.11,2.27,7.37,3.86.72.51,1.42,1.03,2.11,1.57L46.31,1.55l-11.72.43L6.85,75.46c12.35,3.65,8.74-5.32,13.94-11.13ZM40.61,13.47l12.26,32.17-27.78,7.11,15.52-39.28Z"/>
</svg>