<?xml version="1.0" encoding="UTF-8"?>
<svg id="Layer_1" data-name="Layer 1" xmlns="http://www.w3.org/2000/svg" viewBox="0 0 381.72 146.1">
  <defs>
    <style>
      .cls-1 {
        fill: #d7127b;
      }
    </style>
  </defs>
  <rect class="cls-1" x="312.75" y="39.9" width="5.61" height="34.89"/>
  <path class="cls-1" d="M355.14,91.4c-1.04.42-2.1.69-3.2.91-.09.02-.17.01-.26.03-.42,1.69-1.65,3.16-2.57,4.59-.67,1.04-1.15,1.68-2.46,1.31-1.29-.37-2.46-1.53-3.57-2.26-1.46-.96-3.02-1.78-4.75-2.13-30.33-6.14-33.6,37.26-6.16,37.56,4.87.06,9.09-1.5,13.03-4.22-1.89,7.7-7.53,12.25-15.43,12.78-2.95.2-5.2-.9-7.93-.44-2.99,6.75,2.94,6.75,7.98,6.48,18.47-1.01,24.02-18.21,22.91-34.22-.15-2.17-1.68-5.04-1.5-6.76.13-1.29,1.3-2.62,1.97-3.66,2.05-3.18,3.37-5.99,3.73-9.8.02-.15.03-.3.04-.45.01-.19,0-.38,0-.57-.61.31-1.22.61-1.85.87ZM344.89,118.21c-6.15,13.41-26.36,7.58-25.18-7.08.38-4.66,4.86-10.62,9.51-11.58,11.58-2.39,20.67,7.75,15.67,18.66Z"/>
  <path class="cls-1" d="M307,113.55c-.03-4.24-.59-8.62-2.74-12.28-2.65-4.51-7.65-7.5-12.87-7.87-5.22-.37-10.53,1.82-14.09,5.65-.2-1.52-.4-3.04-.59-4.55-1.99,0-3.99,0-5.99,0,0,12.52,0,25.04,0,37.56,2.28,0,4.56,0,6.84-.01-.08-5.53-.15-11.06-.23-16.6-.05-3.76-.05-7.74,1.88-10.97,1.54-2.58,4.24-4.4,7.19-4.98,2.95-.58,6.09.07,8.64,1.67,1.75,1.1,3.23,2.66,4.06,4.55.99,2.26,1.01,4.81,1,7.27-.02,6.33-.03,12.67-.04,19,0,0,6.95.05,6.54.14-.07.02.44-14.36.41-18.61Z"/>
  <rect class="cls-1" x="134.38" y="80.76" width="6.77" height="52.04"/>
  <rect class="cls-1" x="255.18" y="94.73" width="6.77" height="37.59"/>
  <path class="cls-1" d="M255.76,88.99c4.19,3.6,9.46-2.61,5.77-6.1-3.78-3.58-10,2.46-5.77,6.1Z"/>
  <path class="cls-1" d="M157.45,56.38v-.51h-.02c-.12-4.22-.73-7.89-2.51-10.59-.57-.85-1.22-1.65-1.95-2.36-.53-.52-1.1-.99-1.71-1.42-1.71-1.21-3.7-2.02-5.75-2.44-2.18-.44-4.57-.63-6.79-.35-2.55.33-4.95,1.62-7.01,3.1-.47.34-.92.72-1.35,1.11-.2.18-1.9,1.73-1.84,1.82-2.42-3.43-6.28-5.19-10.44-5.75-4.16-.56-8.53.69-11.77,3.35-.63.52-1.69,1.05-2.12.36-.14-.22-.14-.5-.14-.76,0-.7,0-1.4.01-2.09,0,.09-4.88-.22-5.18.27l-.34,1.49c.01,11.05.03,22.1.04,33.15,2.09.01,4.19.02,6.28.03,0-6.03.01-12.06.02-18.1,0-2.89,0-5.45,1.69-7.81,1.48-2.07,3.59-3.43,6.11-3.84,3.14-.52,7.16-.25,9.34,2.07,2.45,2.6,2.58,6.56,2.57,10.13-.02,5.85-.04,11.7-.07,17.55,2.13,0,4.27-.02,6.4-.02-.09-5.07-.04-11.06-.13-16.13-.06-3.62-.01-6.75,1.87-9.85,1.83-3,5.45-4.48,8.96-4.23,3.51.25,6.55,2.43,7.93,5.66.68,1.53,1.07,5.24,1.06,7.88-.04,5.58.16,74.51.16,74.51h6.67V59.03c.02-.9.02-1.78,0-2.64Z"/>
  <path class="cls-1" d="M216.34,74.79h6.33v-17.85c0-3.34-.03-6.04-1.25-9.18-2.9-7.48-11.64-10.19-19.12-8.23-3.04.8-7.05,5.97-8.04,5.96-3.17-6.11-10.97-7.43-17.25-5.99-3.76.86-7.89,7.58-6.96.39h-5.62v34.89h6.32v-10.09c0-4.27-.15-11.43.38-13.86,1.11-5.09,6.37-6.81,11.16-6.05,3.81.6,8.1,2.97,8.11,7.32v22.68h6.32v-23.38c0-2.47,3.21-5.08,5.21-6,2.4-1.11,5.23-1.32,7.73-.44,5.12,1.79,6.75,6.43,6.74,11.37-.02,6.15-.03,12.3-.05,18.46Z"/>
  <path class="cls-1" d="M73.79,75.91c25.89-.05,23.74-38.48-1.05-37.24-23.77,1.19-23.71,37.29,1.05,37.24ZM73.4,44.27c14.21-.48,18.01,20.34,5.06,25.28-19.01,7.24-24.53-24.62-5.06-25.28Z"/>
  <path class="cls-1" d="M263.59,40.95c-1.5-1.82-4.2-.85-6.32-1.05v21.98c0,.64-2.38,5.03-3.05,5.69-3.58,3.57-10.44,4.14-14.3.71-4.29-3.81-3.7-10.26-3.7-15.35v-13.04h-6.32v23.38c0,4.56,6.32,10.7,10.66,11.73,6.31,1.51,11.59.53,16.35-3.72l.35,3.5h6.32v-33.85Z"/>
  <path class="cls-1" d="M375.46,39.98c-3.24,7.21-5.28,17.43-9.04,24.15-.44.79.05,1.19-1.56.9l-9.93-25.03c-.42-.27-4.95-.22-5.88-.1-.97.12-1.22-.38-1.03,1.03l14.45,32.81c-2.09,5.18-6.38,9.19-20.82,6.55l.1,5.48c18.81,4.08,24-5.07,27.63-13.1,4.58-10.12,7.74-21.52,12.31-31.73.31-2.04-4.89-.77-6.24-.96Z"/>
  <path class="cls-1" d="M279.55,48.03c3.21-4.03,10-4.56,14.2-1.86,5.68,3.66,4.65,11.87,4.65,17.64v10.98h5.61c-.06,0,.12-19.32-.14-21.78-.61-5.95-3.39-11.06-9.28-13.12-5.08-1.78-11.04-.9-15.42,2.21-.84.59-.94,1.82-1.48,2-2.06.66-.57-3.73-1.04-4.19h-5.62v34.89h6.32v-10.71c0-5.2-1.24-11.74,2.21-16.06Z"/>
  <path class="cls-1" d="M343.29,74.79v-5.59c-3.43,1.47-9.83-3.67-9.83-6.62v-16.4c2.87,2.02,6.16,3.78,9.82,3.49v-5.58c-8.81.21-10.77-7.26-9.82-14.66h-6.32v33.85c0,6.37,9.84,13.02,16.14,11.52Z"/>
  <path class="cls-1" d="M50.69,60.13l-5.85-1.33c-8.19,14.81-31.32,14.13-36.98-2.48-4.07-11.93,1.96-21.59,10.51-25.6,9.05-3.64,20.73-.58,26.07,9.07l5.85-1.33c-7.26-16.1-24.54-18.83-36.9-12.09-.01-.01-.03-.02-.05-.03-.37.2-.72.44-1.08.65-.27.16-.54.31-.81.49-3.96,2.53-7.22,6.08-9.24,10.54-.08.17-.19.33-.27.5.01,0,.03,0,.04,0-.93,2.21-1.6,4.62-1.84,7.26-2.86,30.72,38.26,41.6,50.55,14.34Z"/>
  <path class="cls-1" d="M76.64,132.76l14.49-48.73h-7.29l-11.46,41.16-3.03-7.23c-3.62-9.9-6.84-19.94-9.03-30.22-.85-.07-1.69-.17-2.52-.35-1.08-.23-2.15-.57-3.19-.94-.6-.21-1.18-.47-1.72-.8-.81-.38-1.47-.94-2.03-1.62h-.3c-2.1,10.89-5.45,24.89-8.68,33.17-.84,2.16-1.61,5.4-3.56,6.58,0,0-9.35-33.82-11.4-40.54-.2-.08-.4-.17-.6-.25-2.53-.93-4.95-2.23-7.31-3.97l15.64,53.68h8.07c4.63-12.03,10.08-28.61,12.34-41.41l13.44,41.41s.46-.02.47-.03c0,0,6.54.18,7.53.14-.1.04-.13.06.09,0,0,0,0,0,.04-.01.07-.02.04-.01,0,0,.31-.13.17-.09,0-.03Z"/>
  <path class="cls-1" d="M226.19,112.72c.04.24.2,1.35.25,1.59.03.19,0,0,.03.19.19,1.07.3,2.06.42,3.15,3.65-.9,19.86-5.04,19.86-5.04,0-.17-.03-.34-.04-.51.01,0,.04,0,.04,0-.06-1.14-.21-2.22-.42-3.26-.02-.14-.04-.28-.06-.42h-.01c-4.21-19.36-33.08-21.16-39.69-1.53-.05.14-.08.29-.13.43-.55-1.1-1.14-2.18-1.78-3.23-3.25-5.34-8.27-9.08-14.67-10.04-5.13-.77-10.3.43-14.6,3.2-.85.55-2.43,2.24-2.43,2.24v-18.96h-6.19v52.04h6.19s.39-4.52.39-4.52c.98.83,2.03,1.6,3.14,2.27,5.36,3.27,11.97,4.19,17.99,2.18,2.76-.92,5.32-2.42,7.43-4.37,1.17-1.08,1.73-1.7,2.42-2.99-.66-1.15-2.67-5.28-2.87-5.73-.43,1.14-1.42,2.3-3.4,4.22-2.91,2.83-6.73,4.42-10.79,4.42-5.76,0-10.82-3.09-13.02-8.31-1.97-4.67-1.57-10.39,1.44-14.56,2.43-3.37,6.52-5.26,10.71-5.36,4.46-.11,8.55,1.91,11.58,5.02,2.29,2.35,3.91,5.36,5.18,8.33.29.69.58,1.41.86,2.14,1.42,3.72,3.13,7.42,5.82,10.47.22.25.45.48.7.67,1.48,1.57,3.25,2.95,5.33,4.06,4.52,2.41,8.69,3.03,13.8,2.39,4.56-.57,12.12-3.15,13.67-8.16-2.71-.27-2.89-.2-5.92-.93-1.3,1.25-3.01,2.14-4.82,2.72-1.86.8-3.92,1.26-6.09,1.26-8.31,0-15.04-6.55-15.04-14.63s6.73-14.63,15.04-14.63c6.58,0,12.15,4.11,14.19,9.83h-.06s.02.05.02.08l-14.56,3.7c.02.14.09.36.09.51Z"/>
  <path class="cls-1" d="M109.11,113.83c.04.24.2,1.35.25,1.59.03.19,0,0,.03.19.19,1.07.3,2.06.42,3.15,3.65-.9,19.86-5.04,19.86-5.04,0-.17-.03-.34,0-.52-.06-1.14-.21-2.22-.42-3.26-.02-.14-.04-.28-.08-.42-.93-3.15-2.01-5.98-4.19-8.5-1.98-2.28-4.5-4.05-7.28-5.21-5.57-2.33-12.12-2.28-17.61.24-8.29,3.8-13.31,13.55-11.4,22.49,1.21,5.66,5.01,10.4,10.09,13.1,4.52,2.41,8.69,3.03,13.8,2.39,4.56-.57,12.12-3.15,13.67-8.16-2.71-.27-2.89-.2-5.92-.93-1.3,1.25-3.01,2.14-4.82,2.72-1.86.8-3.92,1.26-6.09,1.26-8.31,0-15.04-6.55-15.04-14.63s6.73-14.63,15.04-14.63c6.58,0,12.15,4.11,14.19,9.83h-.06s.02.05.02.08l-14.56,3.7c.02.14.09.36.09.51Z"/>
  <path class="cls-1" d="M244.86,11.64c-7.59,1.3-6.22,14.72,2.74,13.27,8.19-1.32,7.15-14.96-2.74-13.27M256.24,27.55h-2.92s0-2.54,0-2.54c-1.04.17-1.56,1.1-2.54,1.65-10.24,5.72-19.59-8.44-10.58-16.01,2.87-2.41,7.49-2.89,10.69-.85.71.46.76.68,2.24,1.76l.18-2.55h2.92v18.54Z"/>
  <path class="cls-1" d="M209.97,21.74c2.02,4.2,10.79,4.33,10.97-1.27.2-6.12-11.21-4.82-12.63-10.7-2.3-9.55,10.67-13.07,14.75-5.33l-2.34,1.59c-1.58-2.85-7.71-3.58-9.01-.55-3.39,7.9,11.5,5.24,12.48,13.17,1.25,10.07-11.58,12.08-17.12,5.46l2.9-2.36Z"/>
  <path class="cls-1" d="M288.67,16.28c-1.76-7.67-12.51-6.04-12.02,1.82,3.89-1.17,7.95-1.77,12.02-1.82M291.56,18.44c-4.81.62-9.79.41-14.39,2.18-.53.68.76,2.29,1.28,2.77,2.76,2.48,7.91,2.07,10.45-.53.62-.11,2.06,1.7,1.79,2.16-7.94,7.34-20.8-.09-16.55-10.68,3.9-9.73,18.59-6.58,17.42,4.11"/>
  <path class="cls-1" d="M261.71,3.56h3.28c-.46,3.69.65,7.83,5.1,7.63v2.91c-1.9.15-3.61-.77-5.1-1.82v8.54c0,1.94,3.64,3.86,5.42,3.87v2.26c-.55,1.68-5.34-.71-6.32-1.58-1.98-1.75-2.37-3.88-2.37-4.9V3.56Z"/>
  <polygon class="cls-1" points="229.08 .99 228.92 27.5 229.52 27.5 232.2 27.55 232.2 .65 229.08 .99"/>
  <path class="cls-1" d="M296.32,9.01h2.92s0,2,0,2h0c.49-1.36,4.98-2.85,5.46-2.36v3.26c-2.59-.34-5.46,2.5-5.46,4.92v10.72h-2.91V9.01Z"/>
  <path class="cls-1" d="M100.65,8.43h2.92c.19.19-.45,2.23.54,1.81,1.87-2.65,7.11-2.9,9.64-1.25.77.5,1.95,2.35,2.75,2.34.07,0,.81-1.16.94-1.3.37-.39.8-.73,1.26-1.02.93-.57,1.99-.91,3.07-1.03,2.19-.25,4.53.33,6.25,1.73,1.1.9,1.89,2.15,2.29,3.51.36,1.26.24,2.56.24,3.85v9.83l-3.23-.05v-.54c0-1.01,0-5.49.04-6.72.08-2.18.19-4.75-.98-6.69-1.1-1.82-3.31-2.29-5.29-1.93-1.62.29-2.66,1.09-3.34,2.59-.92,2.03-.7,4.16-.7,6.35v7l-2.68-.05-.55-.08c-.26-1.72.82-12.76-1.42-14.74-1.48-1.31-3.82-1.49-5.62-.81-2.55.95-3.25,3.74-3.21,6.2.03,2.16,0,4.32,0,6.49,0,.17,0,3,0,3h-2.91V8.43Z"/>
  <path class="cls-1" d="M89.34,16.02l-4.17-11.57-5.28,14.13,9.45-2.56ZM87.11.16l9.89,26.76-3.15-.03-3.25-7.96c-3.35,1.33-9.8,1.01-12.19,3.82-1.77,2.09-.54,5.32-4.75,4L83.12.31l3.99-.15Z"/>
  <path class="cls-1" d="M182.16,11.05c-7.27,1.51-5.85,14.74,3.11,13.24,8.31-1.39,6.77-15.3-3.11-13.24M193.92,26.38c-2.59,1.53-3.53.38-3.46-2.36-7.5,8.78-20.56-1.46-15.06-11.35,3.06-5.51,10.98-6.3,15.23-1.69l.34-2.38,2.94-.16v17.94Z"/>
  <path class="cls-1" d="M149.84,15.68c-1.81-7.67-12.48-6.05-12.02,1.81,3.89-1.12,7.94-1.85,12.02-1.81M152.75,17.86c-4.84.41-9.8.47-14.42,2.15-.53.68.76,2.29,1.28,2.76,2.76,2.48,7.91,2.06,10.45-.53,3.67,1.72.6,3.51-1.81,4.39-8.4,3.06-16.37-4.4-12.95-12.89,3.93-9.76,18.56-6.63,17.44,4.12"/>
  <polygon class="cls-1" points="157.49 26.92 160.17 26.87 160.74 26.88 160.61 .44 157.49 .1 157.49 26.92"/>
  <rect class="cls-1" x="166.6" y="8.43" width="3.28" height="18.49"/>
  <path class="cls-1" d="M167.21.17c4.01-1.22,4.43,4.65.69,4.27-2.53-.25-2.54-3.71-.69-4.27"/>
  <g id="E9FF7U.tif">
    <path class="cls-1" d="M317.92,18.81c.08.06.07,0,.12-.03.31-.2.57-.46.92-.62,2.21-.99,3.49,1.77,1.28,2.78l-1.21.31c.43.1.87.12,1.28.3,2.22.96.98,3.8-1.35,2.74-.32-.14-.59-.39-.89-.55l.49.7c.54.85.56,2.21-.52,2.64-1.19.48-2.04-.64-2.29-1.66-.04-.19-.02-.41-.12-.57-.09.73-.26,1.52-.84,2.03-.87.76-2.2.33-2.39-.83-.14-.82.28-1.53.74-2.17-.25.12-.46.33-.71.47-2.74,1.56-3.93-2.24-.97-2.81l.63-.13c-.46-.09-.92-.12-1.35-.32-1.98-.91-1.06-3.45,1.04-2.86.49.14.85.45,1.28.69l-.38-.52c-.76-.94-.69-2.72.75-2.9,1.32-.17,1.85,1.16,2.02,2.21,0,.06-.04.09.06.1.09-.78.26-1.56.9-2.08s1.68-.4,2.13.36c.53.89.02,2-.59,2.71ZM317.28,20.39c-1.24-2.27-4.65-.45-3.52,1.82,1.19,2.39,4.78.49,3.52-1.82Z"/>
  </g>
</svg>