<?xml version="1.0" encoding="UTF-8"?>
<svg id="Layer_1" xmlns="http://www.w3.org/2000/svg" version="1.1" viewBox="0 0 318.37 256.71">
  <!-- Generator: Adobe Illustrator 29.8.2, SVG Export Plug-In . SVG Version: 2.1.1 Build 3)  -->
  <defs>
    <style>
      .st0 {
        fill: #dc89ba;
      }
    </style>
  </defs>
  <path class="st0" d="M204.65,112.12c-21.31-23.81-57.29,7.63-37.2,31.81,21.1,25.38,58.86-7.6,37.2-31.81M207.81,91.27c1.14.43.85-.2,1.31-.69,3.12-3.31,5.61-7.15,9.35-10,23.86-18.2,46.98,11.51,23.23,29.86l-13.71,7.16c5.4-.02,10.83-1.03,16.22-.05,29.42,5.35,22.55,42.98-8.58,36.82-4.23-.84-8.16-2.99-12.29-4.11l7.87,7.02c8.92,8.67,12.96,24.97,1.18,33.22-12.95,9.06-26.41-1.92-32.29-13.58-1.06-2.11-1.43-4.87-3.1-6.5.92,9.07,1.19,18.97-4.36,26.75-8.31,11.65-25.52,10.14-31.11-3.24-3.94-9.44-.99-19.2,2.8-28.18-2.67,2.15-4.58,5.2-7.2,7.64-28.57,26.51-53.63-15.88-19.63-31.09l7.18-3.28c-5.75.24-11.39,1.09-17.14-.08-26.44-5.38-22.47-38.58,4.47-37.33,6.24.29,11.51,2.96,17.33,4.76l-5.98-5.16c-11.76-9.13-15.99-30.82.81-37.03,15.47-5.73,25.51,8.7,30.5,20.95.27.65-.24,1.14,1.02,1.07-1.1-9.68-1.26-19.5,4.97-27.58,6.51-8.45,19.09-9.53,26.65-1.68,8.9,9.25,5.82,24.05.51,34.31"/>
</svg>